<svg width="375" height="933" viewBox="0 0 375 933" fill="none" xmlns="http://www.w3.org/2000/svg">
<g clip-path="url(#clip0_16_801)">
<rect width="375" height="933" fill="#F3F5FC"/>
<path d="M21.6364 164.727H18.8182V188H21.6364V164.727ZM29.6051 177.5C29.6051 174.455 31.4915 172.727 34.0597 172.727C36.5483 172.727 38.0597 174.352 38.0597 177.091V188H40.7415V176.909C40.7415 172.455 38.3665 170.318 34.8324 170.318C32.196 170.318 30.5597 171.5 29.7415 173.273H29.5142V170.545H26.9233V188H29.6051V177.5ZM52.6875 194.909C56.8693 194.909 60.233 193 60.233 188.5V170.545H57.642V173.318H57.3693C56.7784 172.409 55.6875 170.318 52.2784 170.318C47.8693 170.318 44.8239 173.818 44.8239 179.182C44.8239 184.636 48.0057 187.727 52.233 187.727C55.642 187.727 56.733 185.727 57.3239 184.773H57.5511V188.318C57.5511 191.227 55.5057 192.545 52.6875 192.545C49.517 192.545 48.4034 190.875 47.6875 189.909L45.5511 191.409C46.642 193.239 48.7898 194.909 52.6875 194.909ZM52.5966 185.318C49.233 185.318 47.5057 182.773 47.5057 179.136C47.5057 175.591 49.1875 172.727 52.5966 172.727C55.8693 172.727 57.5966 175.364 57.5966 179.136C57.5966 183 55.8239 185.318 52.5966 185.318ZM65.142 188H67.8239V176.955C67.8239 174.591 69.6875 172.864 72.233 172.864C72.9489 172.864 73.6875 173 73.8693 173.045V170.318C73.5625 170.295 72.858 170.273 72.4602 170.273C70.3693 170.273 68.5511 171.455 67.9148 173.182H67.733V170.545H65.142V188ZM83.8352 188.364C87.3807 188.364 89.9716 186.591 90.7898 183.955L88.1989 183.227C87.517 185.045 85.9375 185.955 83.8352 185.955C80.6875 185.955 78.517 183.92 78.392 180.182H91.0625V179.045C91.0625 172.545 87.1989 170.318 83.5625 170.318C78.8352 170.318 75.6989 174.045 75.6989 179.409C75.6989 184.773 78.7898 188.364 83.8352 188.364ZM78.392 177.864C78.5739 175.148 80.4943 172.727 83.5625 172.727C86.4716 172.727 88.3352 174.909 88.3352 177.864H78.392ZM107.506 174.455C106.665 171.977 104.778 170.318 101.324 170.318C97.642 170.318 94.9148 172.409 94.9148 175.364C94.9148 177.773 96.3466 179.386 99.5511 180.136L102.46 180.818C104.222 181.227 105.051 182.068 105.051 183.273C105.051 184.773 103.46 186 100.96 186C98.767 186 97.392 185.057 96.9148 183.182L94.3693 183.818C94.9943 186.784 97.4375 188.364 101.006 188.364C105.062 188.364 107.824 186.148 107.824 183.136C107.824 180.705 106.301 179.17 103.188 178.409L100.597 177.773C98.5284 177.261 97.5966 176.568 97.5966 175.227C97.5966 173.727 99.1875 172.636 101.324 172.636C103.665 172.636 104.631 173.932 105.097 175.136L107.506 174.455ZM119.179 188.364C122.724 188.364 125.315 186.591 126.134 183.955L123.543 183.227C122.861 185.045 121.281 185.955 119.179 185.955C116.031 185.955 113.861 183.92 113.736 180.182H126.406V179.045C126.406 172.545 122.543 170.318 118.906 170.318C114.179 170.318 111.043 174.045 111.043 179.409C111.043 184.773 114.134 188.364 119.179 188.364ZM113.736 177.864C113.918 175.148 115.838 172.727 118.906 172.727C121.815 172.727 123.679 174.909 123.679 177.864H113.736ZM146.804 188.364C150.349 188.364 152.94 186.591 153.759 183.955L151.168 183.227C150.486 185.045 148.906 185.955 146.804 185.955C143.656 185.955 141.486 183.92 141.361 180.182H154.031V179.045C154.031 172.545 150.168 170.318 146.531 170.318C141.804 170.318 138.668 174.045 138.668 179.409C138.668 184.773 141.759 188.364 146.804 188.364ZM141.361 177.864C141.543 175.148 143.463 172.727 146.531 172.727C149.44 172.727 151.304 174.909 151.304 177.864H141.361ZM160.793 164.727H158.111V188H160.793V164.727ZM182.295 170.545H178.568V166.364H175.886V170.545H173.25V172.818H175.886V183.727C175.886 186.773 178.341 188.227 180.614 188.227C181.614 188.227 182.25 188.045 182.614 187.909L182.068 185.5C181.841 185.545 181.477 185.636 180.886 185.636C179.705 185.636 178.568 185.273 178.568 183V172.818H182.295V170.545ZM193.46 188.364C197.006 188.364 199.597 186.591 200.415 183.955L197.824 183.227C197.142 185.045 195.562 185.955 193.46 185.955C190.312 185.955 188.142 183.92 188.017 180.182H200.688V179.045C200.688 172.545 196.824 170.318 193.188 170.318C188.46 170.318 185.324 174.045 185.324 179.409C185.324 184.773 188.415 188.364 193.46 188.364ZM188.017 177.864C188.199 175.148 190.119 172.727 193.188 172.727C196.097 172.727 197.96 174.909 197.96 177.864H188.017ZM206.298 170.545H203.207L208.753 179.273L203.207 188H206.298L210.48 181.227L214.662 188H217.753L212.116 179.273L217.753 170.545H214.662L210.48 177.682L206.298 170.545ZM229.17 170.545H225.443V166.364H222.761V170.545H220.125V172.818H222.761V183.727C222.761 186.773 225.216 188.227 227.489 188.227C228.489 188.227 229.125 188.045 229.489 187.909L228.943 185.5C228.716 185.545 228.352 185.636 227.761 185.636C226.58 185.636 225.443 185.273 225.443 183V172.818H229.17V170.545ZM240.108 188.364C244.835 188.364 248.017 184.773 248.017 179.364C248.017 173.909 244.835 170.318 240.108 170.318C235.381 170.318 232.199 173.909 232.199 179.364C232.199 184.773 235.381 188.364 240.108 188.364ZM240.108 185.955C236.517 185.955 234.881 182.864 234.881 179.364C234.881 175.864 236.517 172.727 240.108 172.727C243.699 172.727 245.335 175.864 245.335 179.364C245.335 182.864 243.699 185.955 240.108 185.955ZM266.247 188.409C269.293 188.409 270.884 186.773 271.429 185.636H271.565V188H274.247V176.5C274.247 170.955 270.02 170.318 267.793 170.318C265.156 170.318 262.156 171.227 260.793 174.409L263.338 175.318C263.929 174.045 265.327 172.682 267.884 172.682C270.349 172.682 271.565 173.989 271.565 176.227V176.318C271.565 177.614 270.247 177.5 267.065 177.909C263.827 178.33 260.293 179.045 260.293 183.045C260.293 186.455 262.929 188.409 266.247 188.409ZM266.656 186C264.52 186 262.974 185.045 262.974 183.182C262.974 181.136 264.838 180.5 266.929 180.227C268.065 180.091 271.111 179.773 271.565 179.227V181.682C271.565 183.864 269.838 186 266.656 186ZM293.733 194.545V170.545H291.142V173.318H290.824C290.233 172.409 289.188 170.318 285.778 170.318C281.369 170.318 278.324 173.818 278.324 179.318C278.324 184.864 281.369 188.364 285.733 188.364C289.097 188.364 290.233 186.273 290.824 185.318H291.051V194.545H293.733ZM291.097 179.273C291.097 183.227 289.324 185.955 286.097 185.955C282.733 185.955 281.006 183 281.006 179.273C281.006 175.591 282.688 172.727 286.097 172.727C289.369 172.727 291.097 175.364 291.097 179.273ZM309.642 180.864C309.642 184.136 307.142 185.636 305.142 185.636C302.915 185.636 301.324 184 301.324 181.455V170.545H298.642V181.636C298.642 186.091 301.006 188.227 304.278 188.227C306.915 188.227 308.642 186.818 309.46 185.045H309.642V188H312.324V170.545H309.642V180.864ZM317.236 188H319.918V170.545H317.236V188ZM318.599 167.636C319.645 167.636 320.509 166.818 320.509 165.818C320.509 164.818 319.645 164 318.599 164C317.554 164 316.69 164.818 316.69 165.818C316.69 166.818 317.554 167.636 318.599 167.636Z" fill="#0A3871"/>
<rect x="16" y="485" width="343" height="67" rx="24" fill="#0A3871"/>
<path d="M154.839 524H161.952V522.75H156.248V518.795H161.498V517.545H156.248V513.614H161.862V512.364H154.839V524ZM165.56 518.75C165.56 517.227 166.504 516.364 167.788 516.364C169.032 516.364 169.788 517.176 169.788 518.545V524H171.129V518.455C171.129 516.227 169.941 515.159 168.174 515.159C166.856 515.159 166.038 515.75 165.629 516.636H165.515V515.273H164.219V524H165.56V518.75ZM177.124 524.182C179.056 524.182 180.329 523 180.556 521.455H179.215C178.965 522.409 178.17 522.977 177.124 522.977C175.533 522.977 174.511 521.659 174.511 519.636C174.511 517.659 175.556 516.364 177.124 516.364C178.306 516.364 179.011 517.091 179.215 517.886H180.556C180.329 516.25 178.942 515.159 177.102 515.159C174.738 515.159 173.17 517.023 173.17 519.682C173.17 522.295 174.67 524.182 177.124 524.182ZM182.516 524H183.857V518.477C183.857 517.295 184.789 516.432 186.062 516.432C186.42 516.432 186.789 516.5 186.88 516.523V515.159C186.727 515.148 186.374 515.136 186.175 515.136C185.13 515.136 184.221 515.727 183.903 516.591H183.812V515.273H182.516V524ZM188.469 524H189.81V515.273H188.469V524ZM189.151 513.818C189.674 513.818 190.106 513.409 190.106 512.909C190.106 512.409 189.674 512 189.151 512C188.629 512 188.197 512.409 188.197 512.909C188.197 513.409 188.629 513.818 189.151 513.818ZM192.266 527.273H193.607V522.659H193.721C194.016 523.136 194.585 524.182 196.266 524.182C198.448 524.182 199.971 522.432 199.971 519.659C199.971 516.909 198.448 515.159 196.244 515.159C194.539 515.159 194.016 516.205 193.721 516.659H193.562V515.273H192.266V527.273ZM193.585 519.636C193.585 517.682 194.448 516.364 196.085 516.364C197.789 516.364 198.63 517.795 198.63 519.636C198.63 521.5 197.766 522.977 196.085 522.977C194.471 522.977 193.585 521.614 193.585 519.636ZM205.812 515.273H203.948V513.182H202.607V515.273H201.289V516.409H202.607V521.864C202.607 523.386 203.835 524.114 204.971 524.114C205.471 524.114 205.789 524.023 205.971 523.955L205.698 522.75C205.585 522.773 205.403 522.818 205.107 522.818C204.516 522.818 203.948 522.636 203.948 521.5V516.409H205.812V515.273ZM210.397 524.205C211.92 524.205 212.715 523.386 212.988 522.818H213.056V524H214.397V518.25C214.397 515.477 212.283 515.159 211.17 515.159C209.852 515.159 208.352 515.614 207.67 517.205L208.942 517.659C209.238 517.023 209.937 516.341 211.215 516.341C212.448 516.341 213.056 516.994 213.056 518.114V518.159C213.056 518.807 212.397 518.75 210.806 518.955C209.187 519.165 207.42 519.523 207.42 521.523C207.42 523.227 208.738 524.205 210.397 524.205ZM210.602 523C209.533 523 208.761 522.523 208.761 521.591C208.761 520.568 209.692 520.25 210.738 520.114C211.306 520.045 212.829 519.886 213.056 519.614V520.841C213.056 521.932 212.192 523 210.602 523ZM216.844 524H218.185V518.477C218.185 517.295 219.117 516.432 220.39 516.432C220.748 516.432 221.117 516.5 221.208 516.523V515.159C221.055 515.148 220.702 515.136 220.504 515.136C219.458 515.136 218.549 515.727 218.231 516.591H218.14V515.273H216.844V524Z" fill="white"/>
<path d="M143.969 615C147.514 615 149.514 612.795 149.514 609.159C149.514 605.545 147.514 603.364 144.128 603.364H140.378V615H143.969ZM141.787 613.75V604.614H144.037C146.764 604.614 148.151 606.341 148.151 609.159C148.151 612 146.764 613.75 143.878 613.75H141.787ZM155.355 615.182C157.128 615.182 158.423 614.295 158.832 612.977L157.537 612.614C157.196 613.523 156.406 613.977 155.355 613.977C153.781 613.977 152.696 612.96 152.634 611.091H158.969V610.523C158.969 607.273 157.037 606.159 155.219 606.159C152.855 606.159 151.287 608.023 151.287 610.705C151.287 613.386 152.832 615.182 155.355 615.182ZM152.634 609.932C152.724 608.574 153.685 607.364 155.219 607.364C156.673 607.364 157.605 608.455 157.605 609.932H152.634ZM167.19 608.227C166.77 606.989 165.827 606.159 164.099 606.159C162.259 606.159 160.895 607.205 160.895 608.682C160.895 609.886 161.611 610.693 163.213 611.068L164.668 611.409C165.548 611.614 165.963 612.034 165.963 612.636C165.963 613.386 165.168 614 163.918 614C162.821 614 162.134 613.528 161.895 612.591L160.622 612.909C160.935 614.392 162.156 615.182 163.94 615.182C165.969 615.182 167.349 614.074 167.349 612.568C167.349 611.352 166.588 610.585 165.031 610.205L163.736 609.886C162.702 609.631 162.236 609.284 162.236 608.614C162.236 607.864 163.031 607.318 164.099 607.318C165.27 607.318 165.753 607.966 165.986 608.568L167.19 608.227ZM173.027 615.182C174.8 615.182 176.095 614.295 176.504 612.977L175.209 612.614C174.868 613.523 174.078 613.977 173.027 613.977C171.453 613.977 170.368 612.96 170.305 611.091H176.641V610.523C176.641 607.273 174.709 606.159 172.891 606.159C170.527 606.159 168.959 608.023 168.959 610.705C168.959 613.386 170.504 615.182 173.027 615.182ZM170.305 609.932C170.396 608.574 171.357 607.364 172.891 607.364C174.345 607.364 175.277 608.455 175.277 609.932H170.305ZM180.021 609.75C180.021 608.227 180.964 607.364 182.249 607.364C183.493 607.364 184.249 608.176 184.249 609.545V615H185.589V609.455C185.589 607.227 184.402 606.159 182.635 606.159C181.317 606.159 180.499 606.75 180.089 607.636H179.976V606.273H178.68V615H180.021V609.75ZM191.585 615.182C193.517 615.182 194.79 614 195.017 612.455H193.676C193.426 613.409 192.631 613.977 191.585 613.977C189.994 613.977 188.972 612.659 188.972 610.636C188.972 608.659 190.017 607.364 191.585 607.364C192.767 607.364 193.472 608.091 193.676 608.886H195.017C194.79 607.25 193.403 606.159 191.562 606.159C189.199 606.159 187.631 608.023 187.631 610.682C187.631 613.295 189.131 615.182 191.585 615.182ZM196.977 615H198.318V609.477C198.318 608.295 199.25 607.432 200.523 607.432C200.881 607.432 201.25 607.5 201.341 607.523V606.159C201.188 606.148 200.835 606.136 200.636 606.136C199.591 606.136 198.682 606.727 198.364 607.591H198.273V606.273H196.977V615ZM202.93 615H204.271V606.273H202.93V615ZM203.612 604.818C204.135 604.818 204.567 604.409 204.567 603.909C204.567 603.409 204.135 603 203.612 603C203.089 603 202.658 603.409 202.658 603.909C202.658 604.409 203.089 604.818 203.612 604.818ZM206.727 618.273H208.068V613.659H208.182C208.477 614.136 209.045 615.182 210.727 615.182C212.909 615.182 214.432 613.432 214.432 610.659C214.432 607.909 212.909 606.159 210.705 606.159C209 606.159 208.477 607.205 208.182 607.659H208.023V606.273H206.727V618.273ZM208.045 610.636C208.045 608.682 208.909 607.364 210.545 607.364C212.25 607.364 213.091 608.795 213.091 610.636C213.091 612.5 212.227 613.977 210.545 613.977C208.932 613.977 208.045 612.614 208.045 610.636ZM220.273 606.273H218.409V604.182H217.068V606.273H215.75V607.409H217.068V612.864C217.068 614.386 218.295 615.114 219.432 615.114C219.932 615.114 220.25 615.023 220.432 614.955L220.159 613.75C220.045 613.773 219.864 613.818 219.568 613.818C218.977 613.818 218.409 613.636 218.409 612.5V607.409H220.273V606.273ZM224.858 615.205C226.381 615.205 227.176 614.386 227.449 613.818H227.517V615H228.858V609.25C228.858 606.477 226.744 606.159 225.631 606.159C224.312 606.159 222.812 606.614 222.131 608.205L223.403 608.659C223.699 608.023 224.398 607.341 225.676 607.341C226.909 607.341 227.517 607.994 227.517 609.114V609.159C227.517 609.807 226.858 609.75 225.267 609.955C223.648 610.165 221.881 610.523 221.881 612.523C221.881 614.227 223.199 615.205 224.858 615.205ZM225.062 614C223.994 614 223.222 613.523 223.222 612.591C223.222 611.568 224.153 611.25 225.199 611.114C225.767 611.045 227.29 610.886 227.517 610.614V611.841C227.517 612.932 226.653 614 225.062 614ZM231.305 615H232.646V609.477C232.646 608.295 233.578 607.432 234.851 607.432C235.209 607.432 235.578 607.5 235.669 607.523V606.159C235.516 606.148 235.163 606.136 234.964 606.136C233.919 606.136 233.01 606.727 232.692 607.591H232.601V606.273H231.305V615Z" fill="#0A3871"/>
<rect x="16.5" y="576.5" width="342" height="66" rx="23.5" stroke="#0A3871"/>
<g clip-path="url(#clip1_16_801)">
<path d="M32 460C32 462.122 31.1571 464.157 29.6569 465.657C28.1566 467.157 26.1217 468 24 468C21.8783 468 19.8434 467.157 18.3431 465.657C16.8429 464.157 16 462.122 16 460C16 457.878 16.8429 455.843 18.3431 454.343C19.8434 452.843 21.8783 452 24 452C26.1217 452 28.1566 452.843 29.6569 454.343C31.1571 455.843 32 457.878 32 460ZM24 456C23.8736 456 23.7486 456.027 23.6331 456.078C23.5176 456.129 23.4141 456.204 23.3293 456.298C23.2446 456.392 23.1803 456.502 23.1408 456.622C23.1013 456.742 23.0874 456.869 23.1 456.995L23.45 460.502C23.4618 460.64 23.5248 460.768 23.6266 460.862C23.7285 460.955 23.8617 461.007 24 461.007C24.1383 461.007 24.2715 460.955 24.3734 460.862C24.4752 460.768 24.5382 460.64 24.55 460.502L24.9 456.995C24.9126 456.869 24.8987 456.742 24.8592 456.622C24.8197 456.502 24.7554 456.392 24.6707 456.298C24.5859 456.204 24.4824 456.129 24.3669 456.078C24.2514 456.027 24.1264 456 24 456ZM24.002 462C23.7368 462 23.4824 462.105 23.2949 462.293C23.1074 462.48 23.002 462.735 23.002 463C23.002 463.265 23.1074 463.52 23.2949 463.707C23.4824 463.895 23.7368 464 24.002 464C24.2672 464 24.5216 463.895 24.7091 463.707C24.8966 463.52 25.002 463.265 25.002 463C25.002 462.735 24.8966 462.48 24.7091 462.293C24.5216 462.105 24.2672 462 24.002 462Z" fill="#67808E"/>
</g>
<path d="M45.8295 457.455H46.8523C46.8054 456.138 45.5909 455.153 43.9034 455.153C42.233 455.153 40.9205 456.125 40.9205 457.591C40.9205 458.767 41.7727 459.466 43.1364 459.858L44.2102 460.165C45.1307 460.42 45.9489 460.744 45.9489 461.614C45.9489 462.568 45.0284 463.199 43.8182 463.199C42.7784 463.199 41.858 462.739 41.7727 461.75H40.6818C40.7841 463.182 41.9432 464.153 43.8182 464.153C45.8295 464.153 46.9716 463.045 46.9716 461.631C46.9716 459.994 45.4205 459.466 44.517 459.227L43.6307 458.989C42.983 458.818 41.9432 458.477 41.9432 457.54C41.9432 456.705 42.7102 456.091 43.8693 456.091C44.9261 456.091 45.7273 456.594 45.8295 457.455ZM51.2319 464.136C53.0046 464.136 54.1978 462.79 54.1978 460.761C54.1978 458.716 53.0046 457.369 51.2319 457.369C49.4592 457.369 48.266 458.716 48.266 460.761C48.266 462.79 49.4592 464.136 51.2319 464.136ZM51.2319 463.233C49.8853 463.233 49.2717 462.074 49.2717 460.761C49.2717 459.449 49.8853 458.273 51.2319 458.273C52.5785 458.273 53.1921 459.449 53.1921 460.761C53.1921 462.074 52.5785 463.233 51.2319 463.233ZM56.7386 455.273H55.733V464H56.7386V455.273ZM61.2397 464.136C63.0124 464.136 64.2056 462.79 64.2056 460.761C64.2056 458.716 63.0124 457.369 61.2397 457.369C59.467 457.369 58.2738 458.716 58.2738 460.761C58.2738 462.79 59.467 464.136 61.2397 464.136ZM61.2397 463.233C59.8931 463.233 59.2795 462.074 59.2795 460.761C59.2795 459.449 59.8931 458.273 61.2397 458.273C62.5863 458.273 63.1999 459.449 63.1999 460.761C63.1999 462.074 62.5863 463.233 61.2397 463.233ZM70.1214 455.273H69.1158V464H70.1214V455.273ZM74.7077 464.136C76.0373 464.136 77.0089 463.472 77.3157 462.483L76.3441 462.21C76.0884 462.892 75.4961 463.233 74.7077 463.233C73.5273 463.233 72.7134 462.47 72.6665 461.068H77.418V460.642C77.418 458.205 75.9691 457.369 74.6055 457.369C72.8327 457.369 71.6566 458.767 71.6566 460.778C71.6566 462.79 72.8157 464.136 74.7077 464.136ZM72.6665 460.199C72.7347 459.18 73.4549 458.273 74.6055 458.273C75.6964 458.273 76.3952 459.091 76.3952 460.199H72.6665ZM81.7944 457.455H80.3967V455.886H79.391V457.455H78.4023V458.307H79.391V462.398C79.391 463.54 80.3114 464.085 81.1637 464.085C81.5387 464.085 81.7773 464.017 81.9137 463.966L81.7092 463.062C81.6239 463.08 81.4876 463.114 81.266 463.114C80.8228 463.114 80.3967 462.977 80.3967 462.125V458.307H81.7944V457.455ZM83.3072 464H84.3129V459.858C84.3129 458.972 85.0117 458.324 85.9663 458.324C86.2347 458.324 86.5117 458.375 86.5799 458.392V457.369C86.4648 457.361 86.2006 457.352 86.0515 457.352C85.2674 457.352 84.5856 457.795 84.3469 458.443H84.2788V457.455H83.3072V464ZM89.6982 464.153C90.8402 464.153 91.4368 463.54 91.6413 463.114H91.6925V464H92.6982V459.688C92.6982 457.608 91.1129 457.369 90.2777 457.369C89.2891 457.369 88.1641 457.71 87.6527 458.903L88.6072 459.244C88.8288 458.767 89.353 458.256 90.3118 458.256C91.2365 458.256 91.6925 458.746 91.6925 459.585V459.619C91.6925 460.105 91.1982 460.062 90.005 460.216C88.7905 460.374 87.4652 460.642 87.4652 462.142C87.4652 463.42 88.4538 464.153 89.6982 464.153ZM89.8516 463.25C89.0504 463.25 88.4709 462.892 88.4709 462.193C88.4709 461.426 89.1697 461.188 89.9538 461.085C90.38 461.034 91.522 460.915 91.6925 460.71V461.631C91.6925 462.449 91.0447 463.25 89.8516 463.25ZM99.1701 458.92C98.8548 457.991 98.1474 457.369 96.8519 457.369C95.4712 457.369 94.4485 458.153 94.4485 459.261C94.4485 460.165 94.9854 460.77 96.1871 461.051L97.2781 461.307C97.9386 461.46 98.2496 461.776 98.2496 462.227C98.2496 462.79 97.6531 463.25 96.7156 463.25C95.8931 463.25 95.3775 462.896 95.1985 462.193L94.244 462.432C94.4783 463.544 95.3945 464.136 96.7326 464.136C98.2539 464.136 99.2894 463.305 99.2894 462.176C99.2894 461.264 98.7184 460.689 97.5508 460.403L96.5792 460.165C95.8036 459.973 95.4542 459.713 95.4542 459.21C95.4542 458.648 96.0508 458.239 96.8519 458.239C97.7298 458.239 98.092 458.724 98.2667 459.176L99.1701 458.92ZM104.178 464H105.184V459.909C105.184 458.95 105.883 458.273 106.667 458.273C107.43 458.273 107.962 458.771 107.962 459.517V464H108.985V459.739C108.985 458.895 109.513 458.273 110.434 458.273C111.15 458.273 111.763 458.652 111.763 459.619V464H112.769V459.619C112.769 458.081 111.942 457.369 110.775 457.369C109.837 457.369 109.151 457.8 108.815 458.477H108.746C108.423 457.778 107.852 457.369 106.991 457.369C106.138 457.369 105.508 457.778 105.235 458.477H105.15V457.455H104.178V464ZM114.608 464H115.614V457.455H114.608V464ZM115.119 456.364C115.511 456.364 115.835 456.057 115.835 455.682C115.835 455.307 115.511 455 115.119 455C114.727 455 114.403 455.307 114.403 455.682C114.403 456.057 114.727 456.364 115.119 456.364ZM118.461 460.062C118.461 458.92 119.169 458.273 120.132 458.273C121.065 458.273 121.632 458.882 121.632 459.909V464H122.637V459.841C122.637 458.17 121.747 457.369 120.422 457.369C119.433 457.369 118.819 457.812 118.512 458.477H118.427V457.455H117.456V464H118.461V460.062ZM128.6 461.324C128.6 462.551 127.663 463.114 126.913 463.114C126.077 463.114 125.481 462.5 125.481 461.545V457.455H124.475V461.614C124.475 463.284 125.362 464.085 126.589 464.085C127.577 464.085 128.225 463.557 128.532 462.892H128.6V464H129.606V457.455H128.6V461.324ZM126.589 456.568H127.475L128.805 454.591H127.629L126.589 456.568ZM136.084 458.92C135.769 457.991 135.061 457.369 133.766 457.369C132.385 457.369 131.363 458.153 131.363 459.261C131.363 460.165 131.9 460.77 133.101 461.051L134.192 461.307C134.853 461.46 135.164 461.776 135.164 462.227C135.164 462.79 134.567 463.25 133.63 463.25C132.807 463.25 132.292 462.896 132.113 462.193L131.158 462.432C131.392 463.544 132.309 464.136 133.647 464.136C135.168 464.136 136.203 463.305 136.203 462.176C136.203 461.264 135.632 460.689 134.465 460.403L133.493 460.165C132.718 459.973 132.368 459.713 132.368 459.21C132.368 458.648 132.965 458.239 133.766 458.239C134.644 458.239 135.006 458.724 135.181 459.176L136.084 458.92ZM140.376 464.136C141.825 464.136 142.78 463.25 142.95 462.091H141.945C141.757 462.807 141.161 463.233 140.376 463.233C139.183 463.233 138.416 462.244 138.416 460.727C138.416 459.244 139.2 458.273 140.376 458.273C141.263 458.273 141.791 458.818 141.945 459.415H142.95C142.78 458.188 141.74 457.369 140.359 457.369C138.587 457.369 137.411 458.767 137.411 460.761C137.411 462.722 138.536 464.136 140.376 464.136ZM148.545 461.324C148.545 462.551 147.608 463.114 146.858 463.114C146.023 463.114 145.426 462.5 145.426 461.545V457.455H144.42V461.614C144.42 463.284 145.307 464.085 146.534 464.085C147.523 464.085 148.17 463.557 148.477 462.892H148.545V464H149.551V457.455H148.545V461.324ZM152.399 455.273H151.393V464H152.399V455.273ZM156.167 464.153C157.309 464.153 157.906 463.54 158.11 463.114H158.161V464H159.167V459.688C159.167 457.608 157.582 457.369 156.746 457.369C155.758 457.369 154.633 457.71 154.121 458.903L155.076 459.244C155.298 458.767 155.822 458.256 156.781 458.256C157.705 458.256 158.161 458.746 158.161 459.585V459.619C158.161 460.105 157.667 460.062 156.474 460.216C155.259 460.374 153.934 460.642 153.934 462.142C153.934 463.42 154.923 464.153 156.167 464.153ZM156.32 463.25C155.519 463.25 154.94 462.892 154.94 462.193C154.94 461.426 155.638 461.188 156.423 461.085C156.849 461.034 157.991 460.915 158.161 460.71V461.631C158.161 462.449 157.513 463.25 156.32 463.25ZM165.639 458.92C165.324 457.991 164.616 457.369 163.321 457.369C161.94 457.369 160.917 458.153 160.917 459.261C160.917 460.165 161.454 460.77 162.656 461.051L163.747 461.307C164.407 461.46 164.718 461.776 164.718 462.227C164.718 462.79 164.122 463.25 163.184 463.25C162.362 463.25 161.846 462.896 161.667 462.193L160.713 462.432C160.947 463.544 161.863 464.136 163.201 464.136C164.723 464.136 165.758 463.305 165.758 462.176C165.758 461.264 165.187 460.689 164.02 460.403L163.048 460.165C162.272 459.973 161.923 459.713 161.923 459.21C161.923 458.648 162.52 458.239 163.321 458.239C164.199 458.239 164.561 458.724 164.735 459.176L165.639 458.92ZM171.295 466.455C172.202 466.455 172.842 465.973 173.221 464.955L176.008 457.472L174.908 457.455L173.102 462.67H173.033L171.227 457.455H170.136L172.556 464.034L172.369 464.545C172.002 465.543 171.55 465.636 170.817 465.449L170.562 466.335C170.664 466.386 170.954 466.455 171.295 466.455ZM185.35 458.92C185.034 457.991 184.327 457.369 183.032 457.369C181.651 457.369 180.628 458.153 180.628 459.261C180.628 460.165 181.165 460.77 182.367 461.051L183.458 461.307C184.118 461.46 184.429 461.776 184.429 462.227C184.429 462.79 183.833 463.25 182.895 463.25C182.073 463.25 181.557 462.896 181.378 462.193L180.424 462.432C180.658 463.544 181.574 464.136 182.912 464.136C184.434 464.136 185.469 463.305 185.469 462.176C185.469 461.264 184.898 460.689 183.73 460.403L182.759 460.165C181.983 459.973 181.634 459.713 181.634 459.21C181.634 458.648 182.23 458.239 183.032 458.239C183.909 458.239 184.272 458.724 184.446 459.176L185.35 458.92ZM186.983 464H187.989V457.455H186.983V464ZM187.494 456.364C187.886 456.364 188.21 456.057 188.21 455.682C188.21 455.307 187.886 455 187.494 455C187.102 455 186.778 455.307 186.778 455.682C186.778 456.057 187.102 456.364 187.494 456.364ZM190.836 460.062C190.836 458.92 191.544 458.273 192.507 458.273C193.44 458.273 194.007 458.882 194.007 459.909V464H195.012V459.841C195.012 458.17 194.122 457.369 192.797 457.369C191.808 457.369 191.194 457.812 190.887 458.477H190.802V457.455H189.831V464H190.836V460.062ZM202.151 464.153C203.293 464.153 203.89 463.54 204.094 463.114H204.146V464H205.151V459.688C205.151 457.608 203.566 457.369 202.731 457.369C201.742 457.369 200.617 457.71 200.106 458.903L201.06 459.244C201.282 458.767 201.806 458.256 202.765 458.256C203.69 458.256 204.146 458.746 204.146 459.585V459.619C204.146 460.105 203.651 460.062 202.458 460.216C201.244 460.374 199.918 460.642 199.918 462.142C199.918 463.42 200.907 464.153 202.151 464.153ZM202.305 463.25C201.504 463.25 200.924 462.892 200.924 462.193C200.924 461.426 201.623 461.188 202.407 461.085C202.833 461.034 203.975 460.915 204.146 460.71V461.631C204.146 462.449 203.498 463.25 202.305 463.25ZM209.646 464.136C211.095 464.136 212.049 463.25 212.22 462.091H211.214C211.027 462.807 210.43 463.233 209.646 463.233C208.453 463.233 207.686 462.244 207.686 460.727C207.686 459.244 208.47 458.273 209.646 458.273C210.532 458.273 211.061 458.818 211.214 459.415H212.22C212.049 458.188 211.01 457.369 209.629 457.369C207.856 457.369 206.68 458.767 206.68 460.761C206.68 462.722 207.805 464.136 209.646 464.136ZM216.434 464.136C217.764 464.136 218.735 463.472 219.042 462.483L218.071 462.21C217.815 462.892 217.223 463.233 216.434 463.233C215.254 463.233 214.44 462.47 214.393 461.068H219.145V460.642C219.145 458.205 217.696 457.369 216.332 457.369C214.559 457.369 213.383 458.767 213.383 460.778C213.383 462.79 214.542 464.136 216.434 464.136ZM214.393 460.199C214.461 459.18 215.181 458.273 216.332 458.273C217.423 458.273 218.122 459.091 218.122 460.199H214.393ZM221.68 460.062C221.68 458.92 222.387 458.273 223.35 458.273C224.284 458.273 224.85 458.882 224.85 459.909V464H225.856V459.841C225.856 458.17 224.966 457.369 223.64 457.369C222.652 457.369 222.038 457.812 221.731 458.477H221.646V457.455H220.674V464H221.68V460.062ZM230.54 457.455H229.143V455.886H228.137V457.455H227.148V458.307H228.137V462.398C228.137 463.54 229.058 464.085 229.91 464.085C230.285 464.085 230.523 464.017 230.66 463.966L230.455 463.062C230.37 463.08 230.234 463.114 230.012 463.114C229.569 463.114 229.143 462.977 229.143 462.125V458.307H230.54V457.455ZM234.642 464.136C236.415 464.136 237.608 462.79 237.608 460.761C237.608 458.716 236.415 457.369 234.642 457.369C232.869 457.369 231.676 458.716 231.676 460.761C231.676 462.79 232.869 464.136 234.642 464.136ZM234.642 463.233C233.295 463.233 232.682 462.074 232.682 460.761C232.682 459.449 233.295 458.273 234.642 458.273C235.989 458.273 236.602 459.449 236.602 460.761C236.602 462.074 235.989 463.233 234.642 463.233ZM243.779 458.92C243.464 457.991 242.757 457.369 241.461 457.369C240.081 457.369 239.058 458.153 239.058 459.261C239.058 460.165 239.595 460.77 240.797 461.051L241.887 461.307C242.548 461.46 242.859 461.776 242.859 462.227C242.859 462.79 242.262 463.25 241.325 463.25C240.502 463.25 239.987 462.896 239.808 462.193L238.853 462.432C239.088 463.544 240.004 464.136 241.342 464.136C242.863 464.136 243.899 463.305 243.899 462.176C243.899 461.264 243.328 460.689 242.16 460.403L241.189 460.165C240.413 459.973 240.064 459.713 240.064 459.21C240.064 458.648 240.66 458.239 241.461 458.239C242.339 458.239 242.701 458.724 242.876 459.176L243.779 458.92Z" fill="#495057"/>
<g filter="url(#filter0_d_16_801)">
<rect x="24" y="707" width="327" height="186" rx="32" fill="white" shape-rendering="crispEdges"/>
<path d="M86.9915 744.545V762H83.804L76.2102 751.014H76.0824V762H72.392V744.545H75.6307L83.1648 755.523H83.3182V744.545H86.9915ZM89.9723 762V748.909H93.603V762H89.9723ZM91.7962 747.222C91.2564 747.222 90.7933 747.043 90.407 746.685C90.0263 746.321 89.8359 745.886 89.8359 745.381C89.8359 744.881 90.0263 744.452 90.407 744.094C90.7933 743.73 91.2564 743.548 91.7962 743.548C92.3359 743.548 92.7962 743.73 93.1768 744.094C93.5632 744.452 93.7564 744.881 93.7564 745.381C93.7564 745.886 93.5632 746.321 93.1768 746.685C92.7962 747.043 92.3359 747.222 91.7962 747.222ZM100.142 754.432V762H96.5114V748.909H99.9716V751.219H100.125C100.415 750.457 100.901 749.855 101.582 749.412C102.264 748.963 103.091 748.739 104.062 748.739C104.972 748.739 105.764 748.938 106.44 749.335C107.116 749.733 107.642 750.301 108.017 751.04C108.392 751.773 108.58 752.648 108.58 753.665V762H104.949V754.312C104.955 753.511 104.75 752.886 104.335 752.438C103.92 751.983 103.349 751.756 102.622 751.756C102.134 751.756 101.702 751.861 101.327 752.071C100.957 752.281 100.668 752.588 100.457 752.991C100.253 753.389 100.148 753.869 100.142 754.432ZM117.339 767.182C116.163 767.182 115.154 767.02 114.313 766.696C113.478 766.378 112.813 765.943 112.319 765.392C111.825 764.841 111.504 764.222 111.356 763.534L114.714 763.082C114.816 763.344 114.978 763.588 115.2 763.815C115.421 764.043 115.714 764.224 116.077 764.361C116.447 764.503 116.896 764.574 117.424 764.574C118.214 764.574 118.864 764.381 119.376 763.994C119.893 763.614 120.151 762.974 120.151 762.077V759.682H119.998C119.839 760.045 119.6 760.389 119.282 760.713C118.964 761.037 118.555 761.301 118.055 761.506C117.555 761.71 116.958 761.812 116.265 761.812C115.282 761.812 114.387 761.585 113.58 761.131C112.779 760.67 112.14 759.969 111.663 759.026C111.191 758.077 110.955 756.878 110.955 755.429C110.955 753.946 111.197 752.707 111.68 751.713C112.163 750.719 112.805 749.974 113.606 749.48C114.413 748.986 115.296 748.739 116.256 748.739C116.989 748.739 117.603 748.864 118.097 749.114C118.592 749.358 118.989 749.665 119.29 750.034C119.597 750.398 119.833 750.756 119.998 751.108H120.134V748.909H123.739V762.128C123.739 763.241 123.467 764.173 122.921 764.923C122.376 765.673 121.62 766.236 120.654 766.611C119.694 766.991 118.589 767.182 117.339 767.182ZM117.415 759.085C118.001 759.085 118.495 758.94 118.898 758.651C119.308 758.355 119.62 757.935 119.836 757.389C120.058 756.838 120.168 756.179 120.168 755.412C120.168 754.645 120.06 753.98 119.844 753.418C119.629 752.849 119.316 752.409 118.907 752.097C118.498 751.784 118.001 751.628 117.415 751.628C116.819 751.628 116.316 751.79 115.907 752.114C115.498 752.432 115.188 752.875 114.978 753.443C114.768 754.011 114.663 754.668 114.663 755.412C114.663 756.168 114.768 756.821 114.978 757.372C115.194 757.918 115.504 758.341 115.907 758.642C116.316 758.937 116.819 759.085 117.415 759.085ZM135.023 756.426V748.909H138.654V762H135.168V759.622H135.032C134.737 760.389 134.245 761.006 133.558 761.472C132.876 761.937 132.043 762.17 131.06 762.17C130.185 762.17 129.415 761.972 128.751 761.574C128.086 761.176 127.566 760.611 127.191 759.878C126.822 759.145 126.634 758.267 126.629 757.244V748.909H130.259V756.597C130.265 757.369 130.472 757.98 130.881 758.429C131.29 758.878 131.839 759.102 132.526 759.102C132.964 759.102 133.373 759.003 133.754 758.804C134.134 758.599 134.441 758.298 134.674 757.901C134.913 757.503 135.029 757.011 135.023 756.426ZM131.35 747.222L133.157 743.344H136.515L133.915 747.222H131.35ZM145.189 754.432V762H141.558V748.909H145.018V751.219H145.172C145.462 750.457 145.947 749.855 146.629 749.412C147.311 748.963 148.138 748.739 149.109 748.739C150.018 748.739 150.811 748.938 151.487 749.335C152.163 749.733 152.689 750.301 153.064 751.04C153.439 751.773 153.626 752.648 153.626 753.665V762H149.996V754.312C150.001 753.511 149.797 752.886 149.382 752.438C148.967 751.983 148.396 751.756 147.669 751.756C147.18 751.756 146.749 751.861 146.374 752.071C146.004 752.281 145.714 752.588 145.504 752.991C145.3 753.389 145.195 753.869 145.189 754.432ZM162.043 762V748.909H165.503V751.219H165.656C165.929 750.452 166.384 749.847 167.02 749.403C167.656 748.96 168.418 748.739 169.304 748.739C170.202 748.739 170.966 748.963 171.597 749.412C172.227 749.855 172.648 750.457 172.858 751.219H172.994C173.261 750.469 173.744 749.869 174.443 749.42C175.148 748.966 175.98 748.739 176.94 748.739C178.162 748.739 179.153 749.128 179.915 749.906C180.682 750.679 181.065 751.776 181.065 753.196V762H177.443V753.912C177.443 753.185 177.25 752.639 176.864 752.276C176.477 751.912 175.994 751.73 175.415 751.73C174.756 751.73 174.241 751.94 173.872 752.361C173.503 752.776 173.318 753.324 173.318 754.006V762H169.798V753.835C169.798 753.193 169.614 752.682 169.244 752.301C168.881 751.92 168.401 751.73 167.804 751.73C167.401 751.73 167.037 751.832 166.713 752.037C166.395 752.236 166.142 752.517 165.955 752.881C165.767 753.239 165.673 753.659 165.673 754.142V762H162.043ZM189.899 762.256C188.553 762.256 187.393 761.983 186.422 761.438C185.456 760.886 184.712 760.108 184.189 759.102C183.666 758.091 183.405 756.895 183.405 755.514C183.405 754.168 183.666 752.986 184.189 751.969C184.712 750.952 185.447 750.159 186.396 749.591C187.351 749.023 188.47 748.739 189.754 748.739C190.618 748.739 191.422 748.878 192.166 749.156C192.916 749.429 193.57 749.841 194.126 750.392C194.689 750.943 195.126 751.636 195.439 752.472C195.751 753.301 195.908 754.273 195.908 755.386V756.384H184.854V754.134H192.49C192.49 753.611 192.376 753.148 192.149 752.744C191.922 752.341 191.607 752.026 191.203 751.798C190.805 751.565 190.342 751.449 189.814 751.449C189.263 751.449 188.774 751.577 188.348 751.832C187.928 752.082 187.598 752.42 187.359 752.847C187.121 753.267 186.999 753.736 186.993 754.253V756.392C186.993 757.04 187.112 757.599 187.351 758.071C187.595 758.543 187.939 758.906 188.382 759.162C188.825 759.418 189.351 759.545 189.959 759.545C190.362 759.545 190.732 759.489 191.067 759.375C191.402 759.261 191.689 759.091 191.928 758.864C192.166 758.636 192.348 758.358 192.473 758.028L195.831 758.25C195.661 759.057 195.311 759.761 194.783 760.364C194.26 760.96 193.584 761.426 192.754 761.761C191.93 762.091 190.979 762.256 189.899 762.256ZM201.908 754.432V762H198.277V748.909H201.737V751.219H201.891C202.18 750.457 202.666 749.855 203.348 749.412C204.03 748.963 204.857 748.739 205.828 748.739C206.737 748.739 207.53 748.938 208.206 749.335C208.882 749.733 209.408 750.301 209.783 751.04C210.158 751.773 210.345 752.648 210.345 753.665V762H206.714V754.312C206.72 753.511 206.516 752.886 206.101 752.438C205.686 751.983 205.115 751.756 204.388 751.756C203.899 751.756 203.467 751.861 203.092 752.071C202.723 752.281 202.433 752.588 202.223 752.991C202.018 753.389 201.913 753.869 201.908 754.432ZM224.099 752.642L220.775 752.847C220.718 752.562 220.596 752.307 220.408 752.08C220.221 751.847 219.974 751.662 219.667 751.526C219.366 751.384 219.005 751.312 218.585 751.312C218.022 751.312 217.548 751.432 217.161 751.67C216.775 751.903 216.582 752.216 216.582 752.608C216.582 752.92 216.707 753.185 216.957 753.401C217.207 753.616 217.636 753.79 218.244 753.92L220.613 754.398C221.886 754.659 222.835 755.08 223.46 755.659C224.085 756.239 224.397 757 224.397 757.943C224.397 758.801 224.144 759.554 223.638 760.202C223.138 760.849 222.451 761.355 221.576 761.719C220.707 762.077 219.704 762.256 218.567 762.256C216.835 762.256 215.454 761.895 214.425 761.173C213.403 760.446 212.803 759.457 212.627 758.207L216.198 758.02C216.306 758.548 216.567 758.952 216.982 759.23C217.397 759.503 217.928 759.639 218.576 759.639C219.212 759.639 219.724 759.517 220.11 759.273C220.502 759.023 220.701 758.702 220.707 758.31C220.701 757.98 220.562 757.71 220.289 757.5C220.016 757.284 219.596 757.119 219.028 757.006L216.761 756.554C215.482 756.298 214.531 755.855 213.906 755.224C213.286 754.594 212.977 753.79 212.977 752.812C212.977 751.972 213.204 751.247 213.658 750.639C214.119 750.031 214.763 749.562 215.593 749.233C216.428 748.903 217.406 748.739 218.525 748.739C220.178 748.739 221.479 749.088 222.428 749.787C223.383 750.486 223.94 751.437 224.099 752.642ZM230.416 762.247C229.581 762.247 228.837 762.102 228.183 761.812C227.53 761.517 227.013 761.082 226.632 760.509C226.257 759.929 226.07 759.207 226.07 758.344C226.07 757.616 226.203 757.006 226.47 756.511C226.737 756.017 227.101 755.619 227.561 755.318C228.021 755.017 228.544 754.79 229.129 754.636C229.72 754.483 230.339 754.375 230.987 754.312C231.749 754.233 232.362 754.159 232.828 754.091C233.294 754.017 233.632 753.909 233.842 753.767C234.053 753.625 234.158 753.415 234.158 753.136V753.085C234.158 752.545 233.987 752.128 233.646 751.832C233.311 751.537 232.834 751.389 232.214 751.389C231.561 751.389 231.041 751.534 230.655 751.824C230.268 752.108 230.013 752.466 229.888 752.898L226.53 752.625C226.7 751.83 227.036 751.142 227.536 750.562C228.036 749.977 228.68 749.528 229.47 749.216C230.266 748.898 231.186 748.739 232.232 748.739C232.959 748.739 233.655 748.824 234.32 748.994C234.99 749.165 235.584 749.429 236.101 749.787C236.624 750.145 237.036 750.605 237.337 751.168C237.638 751.724 237.788 752.392 237.788 753.17V762H234.345V760.185H234.243C234.033 760.594 233.751 760.955 233.399 761.267C233.047 761.574 232.624 761.815 232.129 761.991C231.635 762.162 231.064 762.247 230.416 762.247ZM231.456 759.741C231.99 759.741 232.462 759.636 232.871 759.426C233.28 759.21 233.601 758.92 233.834 758.557C234.067 758.193 234.183 757.781 234.183 757.321V755.932C234.07 756.006 233.913 756.074 233.714 756.136C233.521 756.193 233.303 756.247 233.058 756.298C232.814 756.344 232.57 756.386 232.325 756.426C232.081 756.46 231.859 756.491 231.661 756.52C231.234 756.582 230.862 756.682 230.544 756.818C230.226 756.955 229.979 757.139 229.803 757.372C229.626 757.599 229.538 757.884 229.538 758.224C229.538 758.719 229.717 759.097 230.075 759.358C230.439 759.614 230.899 759.741 231.456 759.741ZM240.605 748.909H244.236V762.648C244.236 763.659 244.037 764.477 243.639 765.102C243.241 765.727 242.67 766.185 241.926 766.474C241.188 766.764 240.304 766.909 239.276 766.909C239.151 766.909 239.031 766.906 238.918 766.901C238.798 766.901 238.673 766.898 238.543 766.892V764.054C238.639 764.06 238.724 764.062 238.798 764.062C238.866 764.068 238.94 764.071 239.02 764.071C239.605 764.071 240.014 763.946 240.247 763.696C240.486 763.452 240.605 763.082 240.605 762.588V748.909ZM242.412 747.222C241.878 747.222 241.418 747.043 241.031 746.685C240.645 746.321 240.452 745.886 240.452 745.381C240.452 744.881 240.645 744.452 241.031 744.094C241.418 743.73 241.878 743.548 242.412 743.548C242.957 743.548 243.42 743.73 243.801 744.094C244.188 744.452 244.381 744.881 244.381 745.381C244.381 745.886 244.188 746.321 243.801 746.685C243.42 747.043 242.957 747.222 242.412 747.222ZM253.11 762.256C251.763 762.256 250.604 761.983 249.633 761.438C248.667 760.886 247.923 760.108 247.4 759.102C246.877 758.091 246.616 756.895 246.616 755.514C246.616 754.168 246.877 752.986 247.4 751.969C247.923 750.952 248.658 750.159 249.607 749.591C250.562 749.023 251.681 748.739 252.965 748.739C253.829 748.739 254.633 748.878 255.377 749.156C256.127 749.429 256.781 749.841 257.337 750.392C257.9 750.943 258.337 751.636 258.65 752.472C258.962 753.301 259.119 754.273 259.119 755.386V756.384H248.065V754.134H255.701C255.701 753.611 255.587 753.148 255.36 752.744C255.133 752.341 254.817 752.026 254.414 751.798C254.016 751.565 253.553 751.449 253.025 751.449C252.474 751.449 251.985 751.577 251.559 751.832C251.138 752.082 250.809 752.42 250.57 752.847C250.332 753.267 250.21 753.736 250.204 754.253V756.392C250.204 757.04 250.323 757.599 250.562 758.071C250.806 758.543 251.15 758.906 251.593 759.162C252.036 759.418 252.562 759.545 253.17 759.545C253.573 759.545 253.942 759.489 254.278 759.375C254.613 759.261 254.9 759.091 255.138 758.864C255.377 758.636 255.559 758.358 255.684 758.028L259.042 758.25C258.871 759.057 258.522 759.761 257.994 760.364C257.471 760.96 256.795 761.426 255.965 761.761C255.141 762.091 254.19 762.256 253.11 762.256ZM274.082 748.909V751.636H266.003V748.909H274.082ZM267.852 762V747.963C267.852 747.014 268.037 746.227 268.406 745.602C268.781 744.977 269.293 744.509 269.94 744.196C270.588 743.884 271.324 743.727 272.148 743.727C272.705 743.727 273.213 743.77 273.673 743.855C274.139 743.94 274.486 744.017 274.713 744.085L274.065 746.812C273.923 746.767 273.747 746.724 273.537 746.685C273.332 746.645 273.122 746.625 272.906 746.625C272.372 746.625 272 746.75 271.79 747C271.58 747.244 271.474 747.588 271.474 748.031V762H267.852ZM284.695 756.426V748.909H288.326V762H284.84V759.622H284.704C284.408 760.389 283.917 761.006 283.229 761.472C282.548 761.937 281.715 762.17 280.732 762.17C279.857 762.17 279.087 761.972 278.423 761.574C277.758 761.176 277.238 760.611 276.863 759.878C276.494 759.145 276.306 758.267 276.3 757.244V748.909H279.931V756.597C279.937 757.369 280.144 757.98 280.553 758.429C280.962 758.878 281.511 759.102 282.198 759.102C282.636 759.102 283.045 759.003 283.425 758.804C283.806 758.599 284.113 758.298 284.346 757.901C284.585 757.503 284.701 757.011 284.695 756.426ZM297.196 762.256C295.849 762.256 294.69 761.983 293.719 761.438C292.753 760.886 292.009 760.108 291.486 759.102C290.963 758.091 290.702 756.895 290.702 755.514C290.702 754.168 290.963 752.986 291.486 751.969C292.009 750.952 292.744 750.159 293.693 749.591C294.648 749.023 295.767 748.739 297.051 748.739C297.915 748.739 298.719 748.878 299.463 749.156C300.213 749.429 300.866 749.841 301.423 750.392C301.986 750.943 302.423 751.636 302.736 752.472C303.048 753.301 303.205 754.273 303.205 755.386V756.384H292.151V754.134H299.787C299.787 753.611 299.673 753.148 299.446 752.744C299.219 752.341 298.903 752.026 298.5 751.798C298.102 751.565 297.639 751.449 297.111 751.449C296.56 751.449 296.071 751.577 295.645 751.832C295.224 752.082 294.895 752.42 294.656 752.847C294.418 753.267 294.295 753.736 294.29 754.253V756.392C294.29 757.04 294.409 757.599 294.648 758.071C294.892 758.543 295.236 758.906 295.679 759.162C296.122 759.418 296.648 759.545 297.256 759.545C297.659 759.545 298.028 759.489 298.364 759.375C298.699 759.261 298.986 759.091 299.224 758.864C299.463 758.636 299.645 758.358 299.77 758.028L303.128 758.25C302.957 759.057 302.608 759.761 302.08 760.364C301.557 760.96 300.881 761.426 300.051 761.761C299.227 762.091 298.276 762.256 297.196 762.256ZM127.075 791.256C125.728 791.256 124.569 790.983 123.598 790.438C122.632 789.886 121.887 789.108 121.365 788.102C120.842 787.091 120.581 785.895 120.581 784.514C120.581 783.168 120.842 781.986 121.365 780.969C121.887 779.952 122.623 779.159 123.572 778.591C124.527 778.023 125.646 777.739 126.93 777.739C127.794 777.739 128.598 777.878 129.342 778.156C130.092 778.429 130.745 778.841 131.302 779.392C131.865 779.943 132.302 780.636 132.615 781.472C132.927 782.301 133.083 783.273 133.083 784.386V785.384H122.029V783.134H129.666C129.666 782.611 129.552 782.148 129.325 781.744C129.098 781.341 128.782 781.026 128.379 780.798C127.981 780.565 127.518 780.449 126.99 780.449C126.439 780.449 125.95 780.577 125.524 780.832C125.103 781.082 124.774 781.42 124.535 781.847C124.297 782.267 124.174 782.736 124.169 783.253V785.392C124.169 786.04 124.288 786.599 124.527 787.071C124.771 787.543 125.115 787.906 125.558 788.162C126.001 788.418 126.527 788.545 127.135 788.545C127.538 788.545 127.907 788.489 128.243 788.375C128.578 788.261 128.865 788.091 129.103 787.864C129.342 787.636 129.524 787.358 129.649 787.028L133.007 787.25C132.836 788.057 132.487 788.761 131.958 789.364C131.436 789.96 130.76 790.426 129.93 790.761C129.106 791.091 128.154 791.256 127.075 791.256ZM139.083 783.432V791H135.453V777.909H138.913V780.219H139.066C139.356 779.457 139.842 778.855 140.524 778.412C141.206 777.963 142.032 777.739 143.004 777.739C143.913 777.739 144.706 777.938 145.382 778.335C146.058 778.733 146.583 779.301 146.958 780.04C147.333 780.773 147.521 781.648 147.521 782.665V791H143.89V783.312C143.896 782.511 143.691 781.886 143.277 781.438C142.862 780.983 142.291 780.756 141.564 780.756C141.075 780.756 140.643 780.861 140.268 781.071C139.899 781.281 139.609 781.588 139.399 781.991C139.194 782.389 139.089 782.869 139.083 783.432ZM156.297 791.256C154.956 791.256 153.803 790.972 152.837 790.403C151.877 789.83 151.138 789.034 150.621 788.017C150.11 787 149.854 785.83 149.854 784.506C149.854 783.165 150.113 781.989 150.63 780.977C151.152 779.96 151.894 779.168 152.854 778.599C153.814 778.026 154.956 777.739 156.28 777.739C157.422 777.739 158.422 777.946 159.28 778.361C160.138 778.776 160.817 779.358 161.317 780.108C161.817 780.858 162.093 781.739 162.144 782.75H158.718C158.621 782.097 158.365 781.571 157.951 781.173C157.542 780.77 157.005 780.568 156.34 780.568C155.777 780.568 155.286 780.722 154.865 781.028C154.451 781.33 154.127 781.77 153.894 782.349C153.661 782.929 153.544 783.631 153.544 784.455C153.544 785.29 153.658 786 153.885 786.585C154.118 787.17 154.445 787.616 154.865 787.923C155.286 788.23 155.777 788.384 156.34 788.384C156.755 788.384 157.127 788.298 157.456 788.128C157.792 787.957 158.067 787.71 158.283 787.386C158.505 787.057 158.65 786.662 158.718 786.202H162.144C162.087 787.202 161.814 788.082 161.326 788.844C160.843 789.599 160.175 790.19 159.323 790.616C158.471 791.043 157.462 791.256 156.297 791.256ZM170.383 791.256C169.059 791.256 167.914 790.974 166.949 790.412C165.988 789.844 165.247 789.054 164.724 788.043C164.201 787.026 163.94 785.847 163.94 784.506C163.94 783.153 164.201 781.972 164.724 780.96C165.247 779.943 165.988 779.153 166.949 778.591C167.914 778.023 169.059 777.739 170.383 777.739C171.707 777.739 172.849 778.023 173.809 778.591C174.775 779.153 175.52 779.943 176.042 780.96C176.565 781.972 176.826 783.153 176.826 784.506C176.826 785.847 176.565 787.026 176.042 788.043C175.52 789.054 174.775 789.844 173.809 790.412C172.849 790.974 171.707 791.256 170.383 791.256ZM170.4 788.443C171.002 788.443 171.505 788.273 171.909 787.932C172.312 787.585 172.616 787.114 172.821 786.517C173.031 785.92 173.136 785.241 173.136 784.48C173.136 783.719 173.031 783.04 172.821 782.443C172.616 781.847 172.312 781.375 171.909 781.028C171.505 780.682 171.002 780.509 170.4 780.509C169.792 780.509 169.281 780.682 168.866 781.028C168.457 781.375 168.147 781.847 167.937 782.443C167.733 783.04 167.63 783.719 167.63 784.48C167.63 785.241 167.733 785.92 167.937 786.517C168.147 787.114 168.457 787.585 168.866 787.932C169.281 788.273 169.792 788.443 170.4 788.443ZM182.818 783.432V791H179.187V777.909H182.647V780.219H182.801C183.091 779.457 183.576 778.855 184.258 778.412C184.94 777.963 185.767 777.739 186.738 777.739C187.647 777.739 188.44 777.938 189.116 778.335C189.792 778.733 190.318 779.301 190.693 780.04C191.068 780.773 191.255 781.648 191.255 782.665V791H187.625V783.312C187.63 782.511 187.426 781.886 187.011 781.438C186.596 780.983 186.025 780.756 185.298 780.756C184.809 780.756 184.377 780.861 184.002 781.071C183.633 781.281 183.343 781.588 183.133 781.991C182.929 782.389 182.824 782.869 182.818 783.432ZM201.08 777.909V780.636H193.196V777.909H201.08ZM194.986 774.773H198.617V786.977C198.617 787.312 198.668 787.574 198.77 787.761C198.873 787.943 199.015 788.071 199.196 788.145C199.384 788.219 199.6 788.256 199.844 788.256C200.015 788.256 200.185 788.241 200.355 788.213C200.526 788.179 200.657 788.153 200.748 788.136L201.319 790.838C201.137 790.895 200.881 790.96 200.551 791.034C200.222 791.114 199.821 791.162 199.35 791.179C198.475 791.213 197.708 791.097 197.049 790.83C196.395 790.562 195.887 790.148 195.523 789.585C195.159 789.023 194.98 788.312 194.986 787.455V774.773ZM203.445 791V777.909H206.965V780.193H207.101C207.34 779.381 207.74 778.767 208.303 778.352C208.865 777.932 209.513 777.722 210.246 777.722C210.428 777.722 210.624 777.733 210.834 777.756C211.044 777.778 211.229 777.81 211.388 777.849V781.071C211.218 781.02 210.982 780.974 210.681 780.935C210.38 780.895 210.104 780.875 209.854 780.875C209.32 780.875 208.843 780.991 208.422 781.224C208.007 781.452 207.678 781.77 207.434 782.179C207.195 782.588 207.076 783.06 207.076 783.594V791H203.445ZM216.623 791.247C215.788 791.247 215.044 791.102 214.39 790.812C213.737 790.517 213.22 790.082 212.839 789.509C212.464 788.929 212.277 788.207 212.277 787.344C212.277 786.616 212.41 786.006 212.677 785.511C212.944 785.017 213.308 784.619 213.768 784.318C214.228 784.017 214.751 783.79 215.336 783.636C215.927 783.483 216.547 783.375 217.194 783.312C217.956 783.233 218.569 783.159 219.035 783.091C219.501 783.017 219.839 782.909 220.049 782.767C220.26 782.625 220.365 782.415 220.365 782.136V782.085C220.365 781.545 220.194 781.128 219.853 780.832C219.518 780.537 219.041 780.389 218.422 780.389C217.768 780.389 217.248 780.534 216.862 780.824C216.475 781.108 216.22 781.466 216.095 781.898L212.737 781.625C212.907 780.83 213.243 780.142 213.743 779.562C214.243 778.977 214.887 778.528 215.677 778.216C216.473 777.898 217.393 777.739 218.439 777.739C219.166 777.739 219.862 777.824 220.527 777.994C221.197 778.165 221.791 778.429 222.308 778.787C222.831 779.145 223.243 779.605 223.544 780.168C223.845 780.724 223.995 781.392 223.995 782.17V791H220.552V789.185H220.45C220.24 789.594 219.958 789.955 219.606 790.267C219.254 790.574 218.831 790.815 218.336 790.991C217.842 791.162 217.271 791.247 216.623 791.247ZM217.663 788.741C218.197 788.741 218.669 788.636 219.078 788.426C219.487 788.21 219.808 787.92 220.041 787.557C220.274 787.193 220.39 786.781 220.39 786.321V784.932C220.277 785.006 220.12 785.074 219.922 785.136C219.728 785.193 219.51 785.247 219.265 785.298C219.021 785.344 218.777 785.386 218.532 785.426C218.288 785.46 218.066 785.491 217.868 785.52C217.441 785.582 217.069 785.682 216.751 785.818C216.433 785.955 216.186 786.139 216.01 786.372C215.833 786.599 215.745 786.884 215.745 787.224C215.745 787.719 215.924 788.097 216.282 788.358C216.646 788.614 217.106 788.741 217.663 788.741ZM231.636 791.213C230.642 791.213 229.741 790.957 228.934 790.446C228.133 789.929 227.497 789.17 227.025 788.17C226.559 787.165 226.326 785.932 226.326 784.472C226.326 782.972 226.568 781.724 227.051 780.73C227.534 779.73 228.176 778.983 228.977 778.489C229.784 777.989 230.667 777.739 231.627 777.739C232.36 777.739 232.971 777.864 233.46 778.114C233.954 778.358 234.352 778.665 234.653 779.034C234.96 779.398 235.193 779.756 235.352 780.108H235.463V773.545H239.085V791H235.505V788.903H235.352C235.181 789.267 234.94 789.628 234.627 789.986C234.321 790.338 233.92 790.631 233.426 790.864C232.937 791.097 232.341 791.213 231.636 791.213ZM232.787 788.324C233.372 788.324 233.866 788.165 234.27 787.847C234.679 787.523 234.991 787.071 235.207 786.491C235.429 785.912 235.539 785.233 235.539 784.455C235.539 783.676 235.431 783 235.216 782.426C235 781.852 234.687 781.409 234.278 781.097C233.869 780.784 233.372 780.628 232.787 780.628C232.19 780.628 231.687 780.79 231.278 781.114C230.869 781.437 230.559 781.886 230.349 782.46C230.139 783.034 230.034 783.699 230.034 784.455C230.034 785.216 230.139 785.889 230.349 786.474C230.565 787.054 230.875 787.509 231.278 787.838C231.687 788.162 232.19 788.324 232.787 788.324ZM247.985 791.256C246.661 791.256 245.516 790.974 244.55 790.412C243.59 789.844 242.848 789.054 242.326 788.043C241.803 787.026 241.542 785.847 241.542 784.506C241.542 783.153 241.803 781.972 242.326 780.96C242.848 779.943 243.59 779.153 244.55 778.591C245.516 778.023 246.661 777.739 247.985 777.739C249.309 777.739 250.451 778.023 251.411 778.591C252.377 779.153 253.121 779.943 253.644 780.96C254.167 781.972 254.428 783.153 254.428 784.506C254.428 785.847 254.167 787.026 253.644 788.043C253.121 789.054 252.377 789.844 251.411 790.412C250.451 790.974 249.309 791.256 247.985 791.256ZM248.002 788.443C248.604 788.443 249.107 788.273 249.51 787.932C249.914 787.585 250.218 787.114 250.422 786.517C250.632 785.92 250.738 785.241 250.738 784.48C250.738 783.719 250.632 783.04 250.422 782.443C250.218 781.847 249.914 781.375 249.51 781.028C249.107 780.682 248.604 780.509 248.002 780.509C247.394 780.509 246.882 780.682 246.468 781.028C246.059 781.375 245.749 781.847 245.539 782.443C245.334 783.04 245.232 783.719 245.232 784.48C245.232 785.241 245.334 785.92 245.539 786.517C245.749 787.114 246.059 787.585 246.468 787.932C246.882 788.273 247.394 788.443 248.002 788.443Z" fill="#343A40"/>
<path d="M86.076 819.364H84.6669V831H86.076V819.364ZM90.0604 825.75C90.0604 824.227 91.0036 823.364 92.2876 823.364C93.532 823.364 94.2876 824.176 94.2876 825.545V831H95.6286V825.455C95.6286 823.227 94.4411 822.159 92.674 822.159C91.3558 822.159 90.5376 822.75 90.1286 823.636H90.0149V822.273H88.7195V831H90.0604V825.75ZM101.602 834.455C103.692 834.455 105.374 833.5 105.374 831.25V822.273H104.079V823.659H103.942C103.647 823.205 103.102 822.159 101.397 822.159C99.1925 822.159 97.6697 823.909 97.6697 826.591C97.6697 829.318 99.2607 830.864 101.374 830.864C103.079 830.864 103.624 829.864 103.92 829.386H104.033V831.159C104.033 832.614 103.011 833.273 101.602 833.273C100.016 833.273 99.4595 832.438 99.1016 831.955L98.0334 832.705C98.5788 833.619 99.6527 834.455 101.602 834.455ZM101.556 829.659C99.8743 829.659 99.0107 828.386 99.0107 826.568C99.0107 824.795 99.8516 823.364 101.556 823.364C103.192 823.364 104.056 824.682 104.056 826.568C104.056 828.5 103.17 829.659 101.556 829.659ZM107.829 831H109.17V825.477C109.17 824.295 110.102 823.432 111.374 823.432C111.732 823.432 112.102 823.5 112.192 823.523V822.159C112.039 822.148 111.687 822.136 111.488 822.136C110.442 822.136 109.533 822.727 109.215 823.591H109.124V822.273H107.829V831ZM117.175 831.182C118.948 831.182 120.244 830.295 120.653 828.977L119.357 828.614C119.016 829.523 118.227 829.977 117.175 829.977C115.602 829.977 114.516 828.96 114.454 827.091H120.789V826.523C120.789 823.273 118.857 822.159 117.039 822.159C114.675 822.159 113.107 824.023 113.107 826.705C113.107 829.386 114.653 831.182 117.175 831.182ZM114.454 825.932C114.545 824.574 115.505 823.364 117.039 823.364C118.494 823.364 119.425 824.455 119.425 825.932H114.454ZM129.011 824.227C128.59 822.989 127.647 822.159 125.92 822.159C124.079 822.159 122.715 823.205 122.715 824.682C122.715 825.886 123.431 826.693 125.033 827.068L126.488 827.409C127.369 827.614 127.783 828.034 127.783 828.636C127.783 829.386 126.988 830 125.738 830C124.641 830 123.954 829.528 123.715 828.591L122.442 828.909C122.755 830.392 123.977 831.182 125.761 831.182C127.789 831.182 129.17 830.074 129.17 828.568C129.17 827.352 128.408 826.585 126.852 826.205L125.556 825.886C124.522 825.631 124.056 825.284 124.056 824.614C124.056 823.864 124.852 823.318 125.92 823.318C127.09 823.318 127.573 823.966 127.806 824.568L129.011 824.227ZM133.756 831.205C135.279 831.205 136.075 830.386 136.347 829.818H136.415V831H137.756V825.25C137.756 822.477 135.643 822.159 134.529 822.159C133.211 822.159 131.711 822.614 131.029 824.205L132.302 824.659C132.597 824.023 133.296 823.341 134.575 823.341C135.808 823.341 136.415 823.994 136.415 825.114V825.159C136.415 825.807 135.756 825.75 134.165 825.955C132.546 826.165 130.779 826.523 130.779 828.523C130.779 830.227 132.097 831.205 133.756 831.205ZM133.961 830C132.893 830 132.12 829.523 132.12 828.591C132.12 827.568 133.052 827.25 134.097 827.114C134.665 827.045 136.188 826.886 136.415 826.614V827.841C136.415 828.932 135.552 830 133.961 830ZM148.363 831.182C150.136 831.182 151.431 830.295 151.84 828.977L150.545 828.614C150.204 829.523 149.414 829.977 148.363 829.977C146.789 829.977 145.704 828.96 145.641 827.091H151.977V826.523C151.977 823.273 150.045 822.159 148.227 822.159C145.863 822.159 144.295 824.023 144.295 826.705C144.295 829.386 145.84 831.182 148.363 831.182ZM145.641 825.932C145.732 824.574 146.692 823.364 148.227 823.364C149.681 823.364 150.613 824.455 150.613 825.932H145.641ZM155.357 819.364H154.016V831H155.357V819.364ZM166.109 822.273H164.245V820.182H162.904V822.273H161.586V823.409H162.904V828.864C162.904 830.386 164.131 831.114 165.268 831.114C165.768 831.114 166.086 831.023 166.268 830.955L165.995 829.75C165.881 829.773 165.7 829.818 165.404 829.818C164.813 829.818 164.245 829.636 164.245 828.5V823.409H166.109V822.273ZM171.691 831.182C173.464 831.182 174.759 830.295 175.168 828.977L173.873 828.614C173.532 829.523 172.742 829.977 171.691 829.977C170.117 829.977 169.032 828.96 168.969 827.091H175.305V826.523C175.305 823.273 173.373 822.159 171.555 822.159C169.191 822.159 167.623 824.023 167.623 826.705C167.623 829.386 169.168 831.182 171.691 831.182ZM168.969 825.932C169.06 824.574 170.021 823.364 171.555 823.364C173.009 823.364 173.941 824.455 173.941 825.932H168.969ZM178.11 822.273H176.565L179.337 826.636L176.565 831H178.11L180.201 827.614L182.292 831H183.837L181.019 826.636L183.837 822.273H182.292L180.201 825.841L178.11 822.273ZM189.546 822.273H187.683V820.182H186.342V822.273H185.023V823.409H186.342V828.864C186.342 830.386 187.569 831.114 188.705 831.114C189.205 831.114 189.523 831.023 189.705 830.955L189.433 829.75C189.319 829.773 189.137 829.818 188.842 829.818C188.251 829.818 187.683 829.636 187.683 828.5V823.409H189.546V822.273ZM195.015 831.182C197.379 831.182 198.969 829.386 198.969 826.682C198.969 823.955 197.379 822.159 195.015 822.159C192.651 822.159 191.06 823.955 191.06 826.682C191.06 829.386 192.651 831.182 195.015 831.182ZM195.015 829.977C193.219 829.977 192.401 828.432 192.401 826.682C192.401 824.932 193.219 823.364 195.015 823.364C196.81 823.364 197.629 824.932 197.629 826.682C197.629 828.432 196.81 829.977 195.015 829.977ZM212.812 834.273V822.273H211.516V823.659H211.357C211.062 823.205 210.539 822.159 208.835 822.159C206.63 822.159 205.107 823.909 205.107 826.659C205.107 829.432 206.63 831.182 208.812 831.182C210.494 831.182 211.062 830.136 211.357 829.659H211.471V834.273H212.812ZM211.494 826.636C211.494 828.614 210.607 829.977 208.994 829.977C207.312 829.977 206.448 828.5 206.448 826.636C206.448 824.795 207.289 823.364 208.994 823.364C210.63 823.364 211.494 824.682 211.494 826.636ZM220.766 827.432C220.766 829.068 219.516 829.818 218.516 829.818C217.403 829.818 216.607 829 216.607 827.727V822.273H215.266V827.818C215.266 830.045 216.448 831.114 218.085 831.114C219.403 831.114 220.266 830.409 220.675 829.523H220.766V831H222.107V822.273H220.766V827.432ZM228.222 831.182C229.995 831.182 231.29 830.295 231.7 828.977L230.404 828.614C230.063 829.523 229.273 829.977 228.222 829.977C226.648 829.977 225.563 828.96 225.501 827.091H231.836V826.523C231.836 823.273 229.904 822.159 228.086 822.159C225.722 822.159 224.154 824.023 224.154 826.705C224.154 829.386 225.7 831.182 228.222 831.182ZM225.501 825.932C225.592 824.574 226.552 823.364 228.086 823.364C229.54 823.364 230.472 824.455 230.472 825.932H225.501ZM241.671 831.182C243.353 831.182 243.921 830.136 244.217 829.659H244.376V831H245.671V819.364H244.33V823.659H244.217C243.921 823.205 243.398 822.159 241.694 822.159C239.489 822.159 237.967 823.909 237.967 826.659C237.967 829.432 239.489 831.182 241.671 831.182ZM241.853 829.977C240.171 829.977 239.308 828.5 239.308 826.636C239.308 824.795 240.148 823.364 241.853 823.364C243.489 823.364 244.353 824.682 244.353 826.636C244.353 828.614 243.467 829.977 241.853 829.977ZM251.972 831.182C253.745 831.182 255.04 830.295 255.45 828.977L254.154 828.614C253.813 829.523 253.023 829.977 251.972 829.977C250.398 829.977 249.313 828.96 249.251 827.091H255.586V826.523C255.586 823.273 253.654 822.159 251.836 822.159C249.472 822.159 247.904 824.023 247.904 826.705C247.904 829.386 249.45 831.182 251.972 831.182ZM249.251 825.932C249.342 824.574 250.302 823.364 251.836 823.364C253.29 823.364 254.222 824.455 254.222 825.932H249.251ZM263.808 824.227C263.387 822.989 262.444 822.159 260.717 822.159C258.876 822.159 257.512 823.205 257.512 824.682C257.512 825.886 258.228 826.693 259.83 827.068L261.285 827.409C262.165 827.614 262.58 828.034 262.58 828.636C262.58 829.386 261.785 830 260.535 830C259.438 830 258.751 829.528 258.512 828.591L257.239 828.909C257.552 830.392 258.773 831.182 260.558 831.182C262.586 831.182 263.967 830.074 263.967 828.568C263.967 827.352 263.205 826.585 261.648 826.205L260.353 825.886C259.319 825.631 258.853 825.284 258.853 824.614C258.853 823.864 259.648 823.318 260.717 823.318C261.887 823.318 262.37 823.966 262.603 824.568L263.808 824.227ZM269.644 831.182C271.417 831.182 272.712 830.295 273.121 828.977L271.826 828.614C271.485 829.523 270.695 829.977 269.644 829.977C268.07 829.977 266.985 828.96 266.923 827.091H273.258V826.523C273.258 823.273 271.326 822.159 269.508 822.159C267.144 822.159 265.576 824.023 265.576 826.705C265.576 829.386 267.121 831.182 269.644 831.182ZM266.923 825.932C267.013 824.574 267.974 823.364 269.508 823.364C270.962 823.364 271.894 824.455 271.894 825.932H266.923ZM278.957 831.182C280.729 831.182 282.025 830.295 282.434 828.977L281.138 828.614C280.798 829.523 280.008 829.977 278.957 829.977C277.383 829.977 276.298 828.96 276.235 827.091H282.57V826.523C282.57 823.273 280.638 822.159 278.82 822.159C276.457 822.159 274.888 824.023 274.888 826.705C274.888 829.386 276.434 831.182 278.957 831.182ZM276.235 825.932C276.326 824.574 277.286 823.364 278.82 823.364C280.275 823.364 281.207 824.455 281.207 825.932H276.235ZM290.792 824.227C290.371 822.989 289.428 822.159 287.701 822.159C285.86 822.159 284.496 823.205 284.496 824.682C284.496 825.886 285.212 826.693 286.815 827.068L288.269 827.409C289.15 827.614 289.565 828.034 289.565 828.636C289.565 829.386 288.769 830 287.519 830C286.423 830 285.735 829.528 285.496 828.591L284.224 828.909C284.536 830.392 285.758 831.182 287.542 831.182C289.57 831.182 290.951 830.074 290.951 828.568C290.951 827.352 290.19 826.585 288.633 826.205L287.337 825.886C286.303 825.631 285.837 825.284 285.837 824.614C285.837 823.864 286.633 823.318 287.701 823.318C288.871 823.318 289.354 823.966 289.587 824.568L290.792 824.227ZM99.7145 855.182C101.487 855.182 102.783 854.295 103.192 852.977L101.896 852.614C101.555 853.523 100.766 853.977 99.7145 853.977C98.1406 853.977 97.0554 852.96 96.9929 851.091H103.328V850.523C103.328 847.273 101.396 846.159 99.5781 846.159C97.2145 846.159 95.6463 848.023 95.6463 850.705C95.6463 853.386 97.1918 855.182 99.7145 855.182ZM96.9929 849.932C97.0838 848.574 98.044 847.364 99.5781 847.364C101.033 847.364 101.964 848.455 101.964 849.932H96.9929ZM106.709 849.75C106.709 848.227 107.652 847.364 108.936 847.364C110.18 847.364 110.936 848.176 110.936 849.545V855H112.277V849.455C112.277 847.227 111.089 846.159 109.322 846.159C108.004 846.159 107.186 846.75 106.777 847.636H106.663V846.273H105.368V855H106.709V849.75ZM118.273 855.182C120.205 855.182 121.477 854 121.705 852.455H120.364C120.114 853.409 119.318 853.977 118.273 853.977C116.682 853.977 115.659 852.659 115.659 850.636C115.659 848.659 116.705 847.364 118.273 847.364C119.455 847.364 120.159 848.091 120.364 848.886H121.705C121.477 847.25 120.091 846.159 118.25 846.159C115.886 846.159 114.318 848.023 114.318 850.682C114.318 853.295 115.818 855.182 118.273 855.182ZM123.665 855H125.006V849.477C125.006 848.295 125.938 847.432 127.21 847.432C127.568 847.432 127.938 847.5 128.028 847.523V846.159C127.875 846.148 127.523 846.136 127.324 846.136C126.278 846.136 125.369 846.727 125.051 847.591H124.96V846.273H123.665V855ZM129.618 855H130.959V846.273H129.618V855ZM130.3 844.818C130.822 844.818 131.254 844.409 131.254 843.909C131.254 843.409 130.822 843 130.3 843C129.777 843 129.345 843.409 129.345 843.909C129.345 844.409 129.777 844.818 130.3 844.818ZM133.415 858.273H134.756V853.659H134.869C135.165 854.136 135.733 855.182 137.415 855.182C139.597 855.182 141.119 853.432 141.119 850.659C141.119 847.909 139.597 846.159 137.392 846.159C135.688 846.159 135.165 847.205 134.869 847.659H134.71V846.273H133.415V858.273ZM134.733 850.636C134.733 848.682 135.597 847.364 137.233 847.364C138.938 847.364 139.778 848.795 139.778 850.636C139.778 852.5 138.915 853.977 137.233 853.977C135.619 853.977 134.733 852.614 134.733 850.636ZM146.96 846.273H145.097V844.182H143.756V846.273H142.438V847.409H143.756V852.864C143.756 854.386 144.983 855.114 146.119 855.114C146.619 855.114 146.938 855.023 147.119 854.955L146.847 853.75C146.733 853.773 146.551 853.818 146.256 853.818C145.665 853.818 145.097 853.636 145.097 852.5V847.409H146.96V846.273ZM151.545 855.205C153.068 855.205 153.864 854.386 154.136 853.818H154.205V855H155.545V849.25C155.545 846.477 153.432 846.159 152.318 846.159C151 846.159 149.5 846.614 148.818 848.205L150.091 848.659C150.386 848.023 151.085 847.341 152.364 847.341C153.597 847.341 154.205 847.994 154.205 849.114V849.159C154.205 849.807 153.545 849.75 151.955 849.955C150.335 850.165 148.568 850.523 148.568 852.523C148.568 854.227 149.886 855.205 151.545 855.205ZM151.75 854C150.682 854 149.909 853.523 149.909 852.591C149.909 851.568 150.841 851.25 151.886 851.114C152.455 851.045 153.977 850.886 154.205 850.614V851.841C154.205 852.932 153.341 854 151.75 854ZM157.993 855H159.334V849.477C159.334 848.295 160.266 847.432 161.538 847.432C161.896 847.432 162.266 847.5 162.357 847.523V846.159C162.203 846.148 161.851 846.136 161.652 846.136C160.607 846.136 159.697 846.727 159.379 847.591H159.288V846.273H157.993V855ZM171.991 855.182C174.355 855.182 175.946 853.386 175.946 850.682C175.946 847.955 174.355 846.159 171.991 846.159C169.628 846.159 168.037 847.955 168.037 850.682C168.037 853.386 169.628 855.182 171.991 855.182ZM171.991 853.977C170.196 853.977 169.378 852.432 169.378 850.682C169.378 848.932 170.196 847.364 171.991 847.364C173.787 847.364 174.605 848.932 174.605 850.682C174.605 852.432 173.787 853.977 171.991 853.977ZM185.788 855.182C187.47 855.182 188.038 854.136 188.334 853.659H188.493V855H189.788V843.364H188.447V847.659H188.334C188.038 847.205 187.516 846.159 185.811 846.159C183.607 846.159 182.084 847.909 182.084 850.659C182.084 853.432 183.607 855.182 185.788 855.182ZM185.97 853.977C184.288 853.977 183.425 852.5 183.425 850.636C183.425 848.795 184.266 847.364 185.97 847.364C187.607 847.364 188.47 848.682 188.47 850.636C188.47 852.614 187.584 853.977 185.97 853.977ZM196.089 855.182C197.862 855.182 199.158 854.295 199.567 852.977L198.271 852.614C197.93 853.523 197.141 853.977 196.089 853.977C194.516 853.977 193.43 852.96 193.368 851.091H199.703V850.523C199.703 847.273 197.771 846.159 195.953 846.159C193.589 846.159 192.021 848.023 192.021 850.705C192.021 853.386 193.567 855.182 196.089 855.182ZM193.368 849.932C193.459 848.574 194.419 847.364 195.953 847.364C197.408 847.364 198.339 848.455 198.339 849.932H193.368ZM207.925 848.227C207.504 846.989 206.561 846.159 204.834 846.159C202.993 846.159 201.629 847.205 201.629 848.682C201.629 849.886 202.345 850.693 203.947 851.068L205.402 851.409C206.283 851.614 206.697 852.034 206.697 852.636C206.697 853.386 205.902 854 204.652 854C203.555 854 202.868 853.528 202.629 852.591L201.357 852.909C201.669 854.392 202.891 855.182 204.675 855.182C206.703 855.182 208.084 854.074 208.084 852.568C208.084 851.352 207.322 850.585 205.766 850.205L204.47 849.886C203.436 849.631 202.97 849.284 202.97 848.614C202.97 847.864 203.766 847.318 204.834 847.318C206.004 847.318 206.487 847.966 206.72 848.568L207.925 848.227ZM213.761 855.182C215.534 855.182 216.83 854.295 217.239 852.977L215.943 852.614C215.602 853.523 214.812 853.977 213.761 853.977C212.188 853.977 211.102 852.96 211.04 851.091H217.375V850.523C217.375 847.273 215.443 846.159 213.625 846.159C211.261 846.159 209.693 848.023 209.693 850.705C209.693 853.386 211.239 855.182 213.761 855.182ZM211.04 849.932C211.131 848.574 212.091 847.364 213.625 847.364C215.08 847.364 216.011 848.455 216.011 849.932H211.04ZM220.756 849.75C220.756 848.227 221.699 847.364 222.983 847.364C224.227 847.364 224.983 848.176 224.983 849.545V855H226.324V849.455C226.324 847.227 225.136 846.159 223.369 846.159C222.051 846.159 221.233 846.75 220.824 847.636H220.71V846.273H219.415V855H220.756V849.75ZM232.32 855.182C234.251 855.182 235.524 854 235.751 852.455H234.411C234.161 853.409 233.365 853.977 232.32 853.977C230.729 853.977 229.706 852.659 229.706 850.636C229.706 848.659 230.751 847.364 232.32 847.364C233.501 847.364 234.206 848.091 234.411 848.886H235.751C235.524 847.25 234.138 846.159 232.297 846.159C229.933 846.159 228.365 848.023 228.365 850.682C228.365 853.295 229.865 855.182 232.32 855.182ZM237.712 855H239.053V849.477C239.053 848.295 239.984 847.432 241.257 847.432C241.615 847.432 241.984 847.5 242.075 847.523V846.159C241.922 846.148 241.57 846.136 241.371 846.136C240.325 846.136 239.416 846.727 239.098 847.591H239.007V846.273H237.712V855ZM243.665 855H245.006V846.273H243.665V855ZM244.347 844.818C244.869 844.818 245.301 844.409 245.301 843.909C245.301 843.409 244.869 843 244.347 843C243.824 843 243.392 843.409 243.392 843.909C243.392 844.409 243.824 844.818 244.347 844.818ZM247.462 858.273H248.803V853.659H248.916C249.212 854.136 249.78 855.182 251.462 855.182C253.643 855.182 255.166 853.432 255.166 850.659C255.166 847.909 253.643 846.159 251.439 846.159C249.734 846.159 249.212 847.205 248.916 847.659H248.757V846.273H247.462V858.273ZM248.78 850.636C248.78 848.682 249.643 847.364 251.28 847.364C252.984 847.364 253.825 848.795 253.825 850.636C253.825 852.5 252.962 853.977 251.28 853.977C249.666 853.977 248.78 852.614 248.78 850.636ZM261.007 846.273H259.143V844.182H257.803V846.273H256.484V847.409H257.803V852.864C257.803 854.386 259.03 855.114 260.166 855.114C260.666 855.114 260.984 855.023 261.166 854.955L260.893 853.75C260.78 853.773 260.598 853.818 260.303 853.818C259.712 853.818 259.143 853.636 259.143 852.5V847.409H261.007V846.273ZM265.592 855.205C267.115 855.205 267.911 854.386 268.183 853.818H268.251V855H269.592V849.25C269.592 846.477 267.479 846.159 266.365 846.159C265.047 846.159 263.547 846.614 262.865 848.205L264.138 848.659C264.433 848.023 265.132 847.341 266.411 847.341C267.643 847.341 268.251 847.994 268.251 849.114V849.159C268.251 849.807 267.592 849.75 266.001 849.955C264.382 850.165 262.615 850.523 262.615 852.523C262.615 854.227 263.933 855.205 265.592 855.205ZM265.797 854C264.729 854 263.956 853.523 263.956 852.591C263.956 851.568 264.888 851.25 265.933 851.114C266.501 851.045 268.024 850.886 268.251 850.614V851.841C268.251 852.932 267.388 854 265.797 854ZM272.04 855H273.381V849.477C273.381 848.295 274.312 847.432 275.585 847.432C275.943 847.432 276.312 847.5 276.403 847.523V846.159C276.25 846.148 275.898 846.136 275.699 846.136C274.653 846.136 273.744 846.727 273.426 847.591H273.335V846.273H272.04V855ZM277.97 855.091C278.533 855.091 278.993 854.631 278.993 854.068C278.993 853.506 278.533 853.045 277.97 853.045C277.408 853.045 276.947 853.506 276.947 854.068C276.947 854.631 277.408 855.091 277.97 855.091Z" fill="#495057"/>
</g>
<path fill-rule="evenodd" clip-rule="evenodd" d="M40.084 47.6529C40.0393 47.9311 39.9304 48.1959 39.7654 48.4275C39.6004 48.659 39.3836 48.8512 39.1313 48.9898C38.6231 49.3086 38.1785 49.468 37.7286 49.6274C36.7705 49.9488 35.7621 50.2702 34.6956 50.643C33.5708 51.0157 32.5624 51.3885 31.6626 51.6585C30.5404 52.0313 29.4738 52.3526 28.4602 52.7254C27.6976 53.0425 26.9812 53.4556 26.3297 53.9544C25.7237 54.4877 25.1949 55.0983 24.7576 55.7695C24.3077 56.515 24.0245 57.4766 24.0245 58.5975C24.0245 60.842 24.5856 62.5491 25.7104 63.6161C26.8325 64.7396 28.9127 65.2718 31.996 65.2718C35.1402 65.2718 37.2733 64.6856 38.4008 63.5107C39.5203 62.3357 40.0814 60.6826 40.0814 58.5487V47.6529H40.084ZM31.9987 24C37.5036 24 41.545 25.0155 44.1254 27.098C46.7085 29.1291 48 31.7412 48 34.8366V61.2148C48 62.2817 47.7777 63.4567 47.386 64.737C46.989 66.0225 46.2056 67.1949 44.9696 68.2592C43.7919 69.3313 42.1643 70.2389 40.0867 70.933C38.0091 71.6272 35.3149 72 32.0013 72C28.6931 72 25.9935 71.6272 23.9186 70.933C21.8437 70.2389 20.2134 69.3313 19.0356 68.2592C17.94 67.3001 17.1101 66.089 16.622 64.737C16.225 63.4592 16 62.2843 16 61.2174V57.001C16 54.7565 16.6167 52.674 17.8526 50.8563C19.0886 48.9898 20.8274 47.7095 23.0744 46.9073C24.1965 46.5345 25.488 46.1618 26.9463 45.681C28.4072 45.1976 29.7517 44.7169 31.1015 44.2927C32.4512 43.8633 33.629 43.434 34.6373 43.0586C35.2458 42.8221 35.8639 42.6094 36.49 42.421L37.5009 41.9402C37.8979 41.7268 38.287 41.4055 38.6813 40.9787C39.073 40.5545 39.4091 40.0737 39.6923 39.5389C39.9915 38.9599 40.1457 38.3203 40.1423 37.6724V35.9627C40.1464 35.3361 40.011 34.716 39.7453 34.145C39.523 33.5023 39.073 32.9161 38.4564 32.3839C37.8397 31.8492 36.9955 31.4224 35.9871 31.0984C34.9761 30.7822 33.6316 30.6202 32.1125 30.6202C28.9683 30.6202 26.8907 31.2116 25.7686 32.4354C24.8158 33.5049 24.2547 34.8392 24.1436 36.3329C24.1436 36.6543 23.863 36.8677 23.5243 36.8677L16.6775 36.9757C16.5149 36.9764 16.3586 36.9146 16.2426 36.8039C16.1266 36.6931 16.0603 36.5423 16.0582 36.3844V34.8418C16.0582 33.3429 16.3414 31.9546 16.9581 30.6202C17.5774 29.2833 18.5328 28.165 19.8217 27.2009C21.1132 26.2419 22.7991 25.4423 24.8185 24.9076C26.7849 24.2648 29.1986 24 32.004 24H31.9987Z" fill="#0A3871"/>
</g>
<defs>
<filter id="filter0_d_16_801" x="0" y="707" width="375" height="234" filterUnits="userSpaceOnUse" color-interpolation-filters="sRGB">
<feFlood flood-opacity="0" result="BackgroundImageFix"/>
<feColorMatrix in="SourceAlpha" type="matrix" values="0 0 0 0 0 0 0 0 0 0 0 0 0 0 0 0 0 0 127 0" result="hardAlpha"/>
<feMorphology radius="8" operator="erode" in="SourceAlpha" result="effect1_dropShadow_16_801"/>
<feOffset dy="24"/>
<feGaussianBlur stdDeviation="16"/>
<feComposite in2="hardAlpha" operator="out"/>
<feColorMatrix type="matrix" values="0 0 0 0 0 0 0 0 0 0 0 0 0 0 0 0 0 0 0.08 0"/>
<feBlend mode="normal" in2="BackgroundImageFix" result="effect1_dropShadow_16_801"/>
<feBlend mode="normal" in="SourceGraphic" in2="effect1_dropShadow_16_801" result="shape"/>
</filter>
<clipPath id="clip0_16_801">
<rect width="375" height="933" fill="white"/>
</clipPath>
<clipPath id="clip1_16_801">
<rect width="16" height="16" fill="white" transform="translate(16 452)"/>
</clipPath>
</defs>
</svg>
